:SAMPLES-PER-SECOND 30
:FULLY-SPECIFIED
:DEGREES
169
root  -17.7983 34.7632 -13.7879 -174.138 -31.1044 176.542
RightUpLeg  -0.0576819 -31.6092 -6.92484
RightLeg  9.23092 -16.8769 -1.60784
RightFoot  1.97395 0.0173474 -0.362829
RightToes  -25.0655 -0.112513 -0.215463
Spine  -3.19919 5.17558 -2.29935
Spine1  -6.22387 10.8441 -4.47725
HEad  -64.2738 0.168868 12.4635
LeftShoulder1  -1.94126e-019 -3.10601e-018 -2.51263e-017
LeftArm  3.69223 -15.6995 -71.4314
LeftForeArm  167.339 -55.3284 -165.13
LeftHand  -1.42683 -3.53758 18.6849
RightShoulder  -4.96962e-017 0 -2.36833e-017
RightArm  26.5829 25.2735 87.9576
RightForeArm  -167.343 67.6831 158.725
RightHand  -0.755641 -2.75897 -32.699
LeftUpLeg  -10.2929 -20.2396 1.51045
LeftLeg  6.94033 3.15646 0.178635
LeftFoot  9.85472 -0.0471021 0.7126
LeftToes  -27.3473 1.7763e-006 6.54387e-008
170
root  -17.7244 34.7635 -13.7469 -174.15 -31.1836 176.577
RightUpLeg  -0.117921 -31.7309 -6.7609
RightLeg  9.10137 -16.8504 -1.56752
RightFoot  1.95332 0.0178653 -0.368386
RightToes  -24.9103 -0.111434 -0.214279
Spine  -3.20192 5.1127 -2.21366
Spine1  -6.19181 10.7046 -4.35021
HEad  -64.8029 0.937495 12.1933
LeftShoulder1  -1.94126e-019 -3.10601e-018 -2.51263e-017
LeftArm  -0.831534 -14.323 -69.9667
LeftForeArm  167.611 -54.1939 -165.727
LeftHand  -1.27436 -2.79086 18.2089
RightShoulder  -4.96962e-017 0 -2.36833e-017
RightArm  21.4081 24.0055 86.5289
RightForeArm  -165.209 66.1081 160.438
RightHand  -0.852057 -2.46906 -33.1883
LeftUpLeg  -10.3704 -20.3704 1.66291
LeftLeg  6.80109 3.20141 0.17341
LeftFoot  10.0568 -0.0493477 0.720029
LeftToes  -27.4982 1.7763e-006 6.54387e-008
171
root  -17.6529 34.7671 -13.7145 -174.211 -31.0287 176.685
RightUpLeg  -0.160302 -31.822 -6.56105
RightLeg  8.89658 -16.6086 -1.48674
RightFoot  2.03484 0.0200903 -0.396507
RightToes  -24.9422 -0.110427 -0.213195
Spine  -3.26975 4.88516 -2.05619
Spine1  -6.28622 10.208 -4.04112
HEad  -64.6874 1.67924 11.2777
LeftShoulder1  -1.94126e-019 -3.10601e-018 -2.51263e-017
LeftArm  -5.66557 -12.1098 -68.1726
LeftForeArm  162.64 -52.6116 -166.113
LeftHand  -1.15793 -1.36768 19.9406
RightShoulder  -4.96962e-017 0 -2.36833e-017
RightArm  15.7068 22.1384 84.7567
RightForeArm  -168.952 65.0381 161.003
RightHand  -0.162219 -4.86949 -36.3681
LeftUpLeg  -10.4134 -20.243 1.84854
LeftLeg  6.72363 3.23498 0.170864
LeftFoot  10.1427 -0.0511366 0.719316
LeftToes  -27.736 1.7763e-006 6.54387e-008
172
root  -17.5881 34.773 -13.6765 -174.266 -30.5711 176.768
RightUpLeg  -0.266432 -31.6129 -6.3606
RightLeg  8.66059 -16.3805 -1.39991
RightFoot  2.07093 0.0211155 -0.405823
RightToes  -24.7315 -0.109507 -0.212226
Spine  -3.304 4.69307 -2.00762
Spine1  -6.32879 9.79198 -3.93245
HEad  -64.2669 1.99775 10.1939
LeftShoulder1  -1.94126e-019 -3.10601e-018 -2.51263e-017
LeftArm  -7.12785 -11.3768 -68.1361
LeftForeArm  163.362 -52.115 -166.398
LeftHand  -1.05552 -0.259331 21.6618
RightShoulder  -4.96962e-017 0 -2.36833e-017
RightArm  13.7779 21.3818 84.6117
RightForeArm  -177.575 65.2145 159.99
RightHand  0.653671 -7.22584 -39.0998
LeftUpLeg  -10.419 -19.8908 1.97836
LeftLeg  6.6693 3.35101 0.173843
LeftFoot  10.2301 -0.0542279 0.739843
LeftToes  -28.0306 1.7763e-006 6.54387e-008
173
root  -17.5221 34.7806 -13.6356 -174.393 -29.685 176.93
RightUpLeg  -0.440278 -31.0722 -6.07366
RightLeg  8.40721 -16.0708 -1.30363
RightFoot  2.15864 0.0221342 -0.413569
RightToes  -24.562 -0.108688 -0.211387
Spine  -3.35334 4.49091 -1.87324
Spine1  -6.38586 9.42746 -3.61969
HEad  -63.5524 2.27343 9.3315
LeftShoulder1  -1.94126e-019 -3.10601e-018 -2.51263e-017
LeftArm  -2.76217 -12.1271 -69.528
LeftForeArm  163.911 -52.6163 -166.204
LeftHand  -1.08263 -0.726707 20.5617
RightShoulder  -4.96962e-017 0 -2.36833e-017
RightArm  18.4747 21.9389 85.7229
RightForeArm  -178.41 67.0084 158.208
RightHand  0.527631 -6.96607 -36.9934
LeftUpLeg  -10.2943 -19.3503 2.1454
LeftLeg  6.56393 3.65838 0.183129
LeftFoot  10.2763 -0.0601485 0.807393
LeftToes  -28.0521 1.7763e-006 6.54387e-008
174
root  -17.4722 34.7911 -13.6011 -174.59 -28.4012 177.109
RightUpLeg  -0.534502 -30.4044 -5.84385
RightLeg  8.02206 -15.5023 -1.15528
RightFoot  2.37732 0.0245652 -0.440208
RightToes  -24.6874 -0.107985 -0.210694
Spine  -3.34782 4.38974 -1.8212
Spine1  -6.36315 9.24702 -3.43165
HEad  -63.0073 1.7836 8.88875
LeftShoulder1  -1.94126e-019 -3.10601e-018 -2.51263e-017
LeftArm  7.04433 -14.039 -71.424
LeftForeArm  165.133 -54.4924 -165.382
LeftHand  -1.13946 -2.03914 17.9168
RightShoulder  -4.96962e-017 0 -2.36833e-017
RightArm  27.2986 23.0161 87.0282
RightForeArm  -176.124 69.0136 156.273
RightHand  -0.178684 -4.76113 -32.6344
LeftUpLeg  -9.9631 -18.6193 2.2402
LeftLeg  6.35744 4.18056 0.194297
LeftFoot  10.3344 -0.0687642 0.921925
LeftToes  -27.7597 1.7763e-006 6.54387e-008
175
root  -17.4304 34.7999 -13.5734 -174.768 -26.9466 177.279
RightUpLeg  -0.689233 -29.7763 -5.63379
RightLeg  7.71922 -14.7371 -1.02232
RightFoot  2.55475 0.0261188 -0.45319
RightToes  -24.7415 -0.107413 -0.210161
Spine  -3.28011 4.25194 -1.79726
Spine1  -6.2461 8.93784 -3.33332
HEad  -62.5766 0.731375 9.14023
LeftShoulder1  -1.94126e-019 -3.10601e-018 -2.51263e-017
LeftArm  8.65269 -13.239 -72.5805
LeftForeArm  160.682 -54.9072 -164.823
LeftHand  -1.28251 -1.93206 20.3868
RightShoulder  -4.96962e-017 0 -2.36833e-017
RightArm  28.7775 21.2805 86.7642
RightForeArm  -172.634 68.3016 157.488
RightHand  0.165857 -5.82839 -39.6503
LeftUpLeg  -9.68028 -18.0596 2.32152
LeftLeg  6.32861 5.06717 0.233048
LeftFoot  10.2368 -0.0795322 1.07672
LeftToes  -27.1284 1.7763e-006 6.54387e-008
176
root  -17.3829 34.8043 -13.5194 -174.947 -25.3976 177.422
RightUpLeg  -0.9511 -28.7103 -5.38293
RightLeg  7.52532 -14.2829 -0.943534
RightFoot  2.64214 0.0276987 -0.465611
RightToes  -24.5494 -0.106986 -0.209804
Spine  -3.10183 3.9781 -1.72073
Spine1  -5.83948 8.37145 -3.18336
HEad  -63.577 -0.169695 9.74266
LeftShoulder1  -1.94126e-019 -3.10601e-018 -2.51263e-017
LeftArm  5.32422 -11.9817 -72.6355
LeftForeArm  167.612 -54.2368 -165.707
LeftHand  -1.14575 -2.04587 17.9975
RightShoulder  -4.96962e-017 0 -2.36833e-017
RightArm  23.0086 19.4324 85.6985
RightForeArm  -168.337 65.8795 160.326
RightHand  -0.604065 -3.25492 -32.2355
LeftUpLeg  -9.51849 -17.4684 2.38784
LeftLeg  6.52432 6.02223 0.297544
LeftFoot  10.0511 -0.0892913 1.22126
LeftToes  -26.775 1.7763e-006 6.54387e-008
177
root  -17.3409 34.8042 -13.4735 -175.198 -23.7948 177.579
RightUpLeg  -1.13835 -27.8745 -5.19692
RightLeg  7.39464 -13.5488 -0.865384
RightFoot  2.69749 0.0279954 -0.458936
RightToes  -24.6165 -0.106718 -0.209636
Spine  -3.05832 3.7001 -1.53689
Spine1  -5.68941 7.78037 -2.81339
HEad  -64.6826 -1.38697 9.66292
LeftShoulder1  -1.94126e-019 -3.10601e-018 -2.51263e-017
LeftArm  0.764403 -10.187 -72.2335
LeftForeArm  164.865 -53.6119 -165.802
LeftHand  -1.1487 -1.726 18.8238
RightShoulder  -4.96962e-017 0 -2.36833e-017
RightArm  16.5212 17.3295 83.4801
RightForeArm  -170.907 64.3881 161.336
RightHand  -0.396894 -3.96495 -31.7664
LeftUpLeg  -9.32453 -16.5366 2.44737
LeftLeg  6.85645 6.62986 0.365935
LeftFoot  9.76632 -0.0937434 1.28617
LeftToes  -26.6474 1.7763e-006 6.54387e-008
178
root  -17.3078 34.8063 -13.4253 -175.428 -22.1407 177.737
RightUpLeg  -1.35339 -27.1363 -5.03293
RightLeg  7.30257 -12.6395 -0.788227
RightFoot  2.75328 0.0273113 -0.437666
RightToes  -24.6236 -0.106625 -0.209674
Spine  -3.07888 3.40602 -1.40485
Spine1  -5.69804 7.15072 -2.52227
HEad  -65.1102 -2.42733 9.20991
LeftShoulder1  -1.94126e-019 -3.10601e-018 -2.51263e-017
LeftArm  -2.94283 -8.33946 -71.636
LeftForeArm  164.244 -52.7674 -166.161
LeftHand  -1.03756 -0.492391 20.4846
RightShoulder  -4.96962e-017 0 -2.36833e-017
RightArm  10.6216 14.8996 81.7
RightForeArm  -177.089 64.2015 160.884
RightHand  0.443114 -6.78329 -35.3378
LeftUpLeg  -9.13866 -15.419 2.50143
LeftLeg  7.18883 7.14099 0.43549
LeftFoot  9.46903 -0.0969762 1.3324
LeftToes  -26.4224 1.7763e-006 6.54387e-008
